<mxfile host="Electron" agent="Mozilla/5.0 (X11; Linux x86_64) AppleWebKit/537.36 (KHTML, like Gecko) draw.io/28.0.4 Chrome/138.0.7204.97 Electron/37.2.1 Safari/537.36" version="28.0.4">
  <diagram name="Page-1" id="EJQDTNTVxAfN0VZG15yv">
    <mxGraphModel dx="1595" dy="848" grid="1" gridSize="10" guides="1" tooltips="1" connect="1" arrows="1" fold="1" page="1" pageScale="1" pageWidth="1600" pageHeight="1600" math="0" shadow="0">
      <root>
        <mxCell id="0" />
        <mxCell id="1" parent="0" />
        <mxCell id="NseP03oUoQsXCOuhoZe_-4" value="Pipeline Control Hierarchy" style="swimlane;whiteSpace=wrap;html=1;" vertex="1" parent="1">
          <mxGeometry x="40" y="40" width="650" height="550" as="geometry" />
        </mxCell>
        <mxCell id="NseP03oUoQsXCOuhoZe_-6" value="" style="edgeStyle=orthogonalEdgeStyle;rounded=0;orthogonalLoop=1;jettySize=auto;html=1;" edge="1" parent="NseP03oUoQsXCOuhoZe_-4" source="NseP03oUoQsXCOuhoZe_-1" target="NseP03oUoQsXCOuhoZe_-5">
          <mxGeometry relative="1" as="geometry" />
        </mxCell>
        <mxCell id="NseP03oUoQsXCOuhoZe_-14" style="edgeStyle=orthogonalEdgeStyle;rounded=0;orthogonalLoop=1;jettySize=auto;html=1;exitX=0;exitY=1;exitDx=0;exitDy=0;" edge="1" parent="NseP03oUoQsXCOuhoZe_-4" source="NseP03oUoQsXCOuhoZe_-1" target="NseP03oUoQsXCOuhoZe_-13">
          <mxGeometry relative="1" as="geometry" />
        </mxCell>
        <mxCell id="NseP03oUoQsXCOuhoZe_-15" style="edgeStyle=orthogonalEdgeStyle;rounded=0;orthogonalLoop=1;jettySize=auto;html=1;exitX=1;exitY=1;exitDx=0;exitDy=0;" edge="1" parent="NseP03oUoQsXCOuhoZe_-4" source="NseP03oUoQsXCOuhoZe_-1" target="NseP03oUoQsXCOuhoZe_-12">
          <mxGeometry relative="1" as="geometry" />
        </mxCell>
        <mxCell id="NseP03oUoQsXCOuhoZe_-1" value="Pipeline:&lt;br&gt;Holds all nodes and manages thread level activity. Direct user interface to DSP operations. Forwards all commands to constituent components" style="rounded=0;whiteSpace=wrap;html=1;" vertex="1" parent="NseP03oUoQsXCOuhoZe_-4">
          <mxGeometry x="215" y="120" width="230" height="110" as="geometry" />
        </mxCell>
        <mxCell id="NseP03oUoQsXCOuhoZe_-3" style="edgeStyle=orthogonalEdgeStyle;rounded=0;orthogonalLoop=1;jettySize=auto;html=1;" edge="1" parent="NseP03oUoQsXCOuhoZe_-4" source="NseP03oUoQsXCOuhoZe_-2" target="NseP03oUoQsXCOuhoZe_-1">
          <mxGeometry relative="1" as="geometry" />
        </mxCell>
        <mxCell id="NseP03oUoQsXCOuhoZe_-8" value="" style="edgeStyle=orthogonalEdgeStyle;rounded=0;orthogonalLoop=1;jettySize=auto;html=1;" edge="1" parent="NseP03oUoQsXCOuhoZe_-4" source="NseP03oUoQsXCOuhoZe_-2" target="NseP03oUoQsXCOuhoZe_-7">
          <mxGeometry relative="1" as="geometry" />
        </mxCell>
        <mxCell id="NseP03oUoQsXCOuhoZe_-10" style="edgeStyle=orthogonalEdgeStyle;rounded=0;orthogonalLoop=1;jettySize=auto;html=1;" edge="1" parent="NseP03oUoQsXCOuhoZe_-4" source="NseP03oUoQsXCOuhoZe_-2" target="NseP03oUoQsXCOuhoZe_-9">
          <mxGeometry relative="1" as="geometry" />
        </mxCell>
        <mxCell id="NseP03oUoQsXCOuhoZe_-2" value="Orchestrator: Optional for distributed" style="rounded=0;whiteSpace=wrap;html=1;" vertex="1" parent="NseP03oUoQsXCOuhoZe_-4">
          <mxGeometry x="270" y="30" width="120" height="60" as="geometry" />
        </mxCell>
        <mxCell id="NseP03oUoQsXCOuhoZe_-17" value="" style="edgeStyle=orthogonalEdgeStyle;rounded=0;orthogonalLoop=1;jettySize=auto;html=1;" edge="1" parent="NseP03oUoQsXCOuhoZe_-4" source="NseP03oUoQsXCOuhoZe_-5" target="NseP03oUoQsXCOuhoZe_-16">
          <mxGeometry relative="1" as="geometry" />
        </mxCell>
        <mxCell id="NseP03oUoQsXCOuhoZe_-5" value="Thread: Compute unit and control plane for a single DSP node. Manages constituent async operations for message passing" style="whiteSpace=wrap;html=1;rounded=0;" vertex="1" parent="NseP03oUoQsXCOuhoZe_-4">
          <mxGeometry x="220" y="280" width="220" height="60" as="geometry" />
        </mxCell>
        <mxCell id="NseP03oUoQsXCOuhoZe_-7" value="Pipeline" style="whiteSpace=wrap;html=1;rounded=0;" vertex="1" parent="NseP03oUoQsXCOuhoZe_-4">
          <mxGeometry x="510" y="140" width="120" height="60" as="geometry" />
        </mxCell>
        <mxCell id="NseP03oUoQsXCOuhoZe_-9" value="Pipeline" style="whiteSpace=wrap;html=1;rounded=0;" vertex="1" parent="NseP03oUoQsXCOuhoZe_-4">
          <mxGeometry x="20" y="140" width="120" height="60" as="geometry" />
        </mxCell>
        <mxCell id="NseP03oUoQsXCOuhoZe_-12" value="Thread" style="rounded=0;whiteSpace=wrap;html=1;" vertex="1" parent="NseP03oUoQsXCOuhoZe_-4">
          <mxGeometry x="510" y="280" width="120" height="60" as="geometry" />
        </mxCell>
        <mxCell id="NseP03oUoQsXCOuhoZe_-13" value="Thread" style="rounded=0;whiteSpace=wrap;html=1;" vertex="1" parent="NseP03oUoQsXCOuhoZe_-4">
          <mxGeometry x="20" y="280" width="120" height="60" as="geometry" />
        </mxCell>
        <mxCell id="NseP03oUoQsXCOuhoZe_-16" value="Node: Holds async operations and runs&amp;nbsp; actual DSP operations. Smallest control constituency. Coordinates IO with CPU task" style="whiteSpace=wrap;html=1;rounded=0;" vertex="1" parent="NseP03oUoQsXCOuhoZe_-4">
          <mxGeometry x="270" y="400" width="120" height="130" as="geometry" />
        </mxCell>
      </root>
    </mxGraphModel>
  </diagram>
</mxfile>
